<?xml version="1.0" encoding="UTF-8" standalone="no"?>
<!-- Created with Inkscape (http://www.inkscape.org/) -->

<svg
   xmlns:dc="http://purl.org/dc/elements/1.1/"
   xmlns:cc="http://creativecommons.org/ns#"
   xmlns:rdf="http://www.w3.org/1999/02/22-rdf-syntax-ns#"
   xmlns:svg="http://www.w3.org/2000/svg"
   xmlns="http://www.w3.org/2000/svg"
   xmlns:sodipodi="http://sodipodi.sourceforge.net/DTD/sodipodi-0.dtd"
   xmlns:inkscape="http://www.inkscape.org/namespaces/inkscape"
   width="320"
   height="320"
   viewBox="0 0 84.666665 84.666669"
   version="1.1"
   id="svg8"
   inkscape:version="0.92.3 (2405546, 2018-03-11)"
   sodipodi:docname="redshirt.svg"
   inkscape:export-filename="/home/terry/repos/drd/img/redshirt.png"
   inkscape:export-xdpi="96"
   inkscape:export-ydpi="96">
  <defs
     id="defs2">
    <clipPath
       clipPathUnits="userSpaceOnUse"
       id="clipPath924">
      <path
         sodipodi:nodetypes="csssssc"
         inkscape:connector-curvature="0"
         id="path926"
         d="m 52.923313,217.39064 c 0,0 1.55095,3.3894 1.380958,6.35765 -0.206748,3.61005 -1.617525,5.46764 -3.774617,6.79308 -1.734997,1.06609 -5.758812,1.35701 -8.746069,-1.13218 -2.625212,-2.18749 -2.736869,-4.28468 -2.853981,-7.05436 -0.09206,-2.17728 1.179417,-7.41427 7.088917,-7.48982 6.81273,-0.0871 6.904792,2.52563 6.904792,2.52563 z"
         style="fill:#ffffff;stroke:#000000;stroke-width:0.38238454;stroke-linecap:butt;stroke-linejoin:miter;stroke-miterlimit:4;stroke-dasharray:none;stroke-opacity:1" />
    </clipPath>
    <clipPath
       clipPathUnits="userSpaceOnUse"
       id="clipPath928">
      <path
         sodipodi:nodetypes="csssssc"
         inkscape:connector-curvature="0"
         id="path930"
         d="m 52.923313,217.39064 c 0,0 1.55095,3.3894 1.380958,6.35765 -0.206748,3.61005 -1.617525,5.46764 -3.774617,6.79308 -1.734997,1.06609 -5.758812,1.35701 -8.746069,-1.13218 -2.625212,-2.18749 -2.736869,-4.28468 -2.853981,-7.05436 -0.09206,-2.17728 1.179417,-7.41427 7.088917,-7.48982 6.81273,-0.0871 6.904792,2.52563 6.904792,2.52563 z"
         style="fill:#ffffff;stroke:#000000;stroke-width:0.38238454;stroke-linecap:butt;stroke-linejoin:miter;stroke-miterlimit:4;stroke-dasharray:none;stroke-opacity:1" />
    </clipPath>
  </defs>
  <sodipodi:namedview
     id="base"
     pagecolor="#ffffff"
     bordercolor="#666666"
     borderopacity="1.0"
     inkscape:pageopacity="0.0"
     inkscape:pageshadow="2"
     inkscape:zoom="1.4"
     inkscape:cx="136.2509"
     inkscape:cy="141.34355"
     inkscape:document-units="mm"
     inkscape:current-layer="layer1"
     showgrid="false"
     units="px"
     inkscape:window-width="1920"
     inkscape:window-height="1052"
     inkscape:window-x="0"
     inkscape:window-y="0"
     inkscape:window-maximized="1"
     showguides="false"
     inkscape:pagecheckerboard="true" />
  <metadata
     id="metadata5">
    <rdf:RDF>
      <cc:Work
         rdf:about="">
        <dc:format>image/svg+xml</dc:format>
        <dc:type
           rdf:resource="http://purl.org/dc/dcmitype/StillImage" />
        <dc:title />
      </cc:Work>
    </rdf:RDF>
  </metadata>
  <g
     inkscape:label="Layer 1"
     inkscape:groupmode="layer"
     id="layer1"
     transform="translate(0,-212.33332)">
    <rect
       style="fill:#000000;fill-opacity:1;stroke:none;stroke-width:1.33107924;stroke-miterlimit:4;stroke-dasharray:none;stroke-opacity:1"
       id="rect851"
       width="84.666664"
       height="84.666664"
       x="0.26995596"
       y="212.34137"
       inkscape:export-xdpi="96"
       inkscape:export-ydpi="96" />
    <g
       style="fill:#f4d7d7;fill-opacity:1;stroke:#ffffff;stroke-width:0.91840577;stroke-miterlimit:4;stroke-dasharray:none;stroke-opacity:1"
       transform="matrix(0.07947644,0.6720839,-0.47897931,0.12668707,95.36297,256.3344)"
       id="g974">
      <ellipse
         style="fill:#f4d7d7;fill-opacity:1;stroke:#ffffff;stroke-width:0.91840577;stroke-miterlimit:4;stroke-dasharray:none;stroke-opacity:1"
         id="ellipse970"
         cx="54.85006"
         cy="171.58784"
         rx="2.4054255"
         ry="5.4790254"
         transform="rotate(31.460303)" />
      <ellipse
         style="fill:#f4d7d7;fill-opacity:1;stroke:#ffffff;stroke-width:0.91840577;stroke-miterlimit:4;stroke-dasharray:none;stroke-opacity:1"
         id="ellipse972"
         cx="-38.353176"
         cy="176.19415"
         rx="4.9444861"
         ry="6.949008" />
    </g>
    <rect
       style="fill:#000000;fill-opacity:1;stroke:#ffffff;stroke-width:0.55858272;stroke-miterlimit:4;stroke-dasharray:none;stroke-opacity:1"
       id="rect868"
       width="1.5824213"
       height="7.4126253"
       x="47.854088"
       y="224.47876"
       transform="matrix(0.83182355,0.55504016,-0.13118868,0.99135742,0,0)"
       inkscape:transform-center-x="4.2825395"
       inkscape:transform-center-y="-28.385233" />
    <g
       id="g900"
       transform="matrix(0.49721952,-0.26338692,0.21195816,0.59343518,61.992293,138.30511)"
       style="fill:#ffd5d5;fill-opacity:1;stroke:#ffffff;stroke-width:0.89331404;stroke-miterlimit:4;stroke-dasharray:none;stroke-opacity:1">
      <ellipse
         transform="rotate(31.460303)"
         ry="5.4790254"
         rx="2.4054255"
         cy="171.58784"
         cx="54.85006"
         id="path894"
         style="fill:#ffd5d5;fill-opacity:1;stroke:#ffffff;stroke-width:0.89331404;stroke-miterlimit:4;stroke-dasharray:none;stroke-opacity:1" />
      <ellipse
         ry="6.949008"
         rx="4.9444861"
         cy="176.19415"
         cx="-38.353176"
         id="path896"
         style="fill:#ffd5d5;fill-opacity:1;stroke:#ffffff;stroke-width:0.89331404;stroke-miterlimit:4;stroke-dasharray:none;stroke-opacity:1" />
    </g>
    <g
       id="g818"
       transform="translate(5.6696429,8.6934524)" />
    <path
       style="fill:#ff0000;stroke:#ffffff;stroke-width:0.52916667;stroke-linecap:butt;stroke-linejoin:miter;stroke-opacity:1;stroke-miterlimit:4;stroke-dasharray:none"
       d="m 31.052001,240.80663 -13.15362,28.80163 c 0,0 15.939761,1.07538 27.201549,1.07538 11.261787,0 28.587615,-1.22901 28.587615,-1.22901 l -13.163716,-28.648 z"
       id="path820"
       inkscape:connector-curvature="0"
       sodipodi:nodetypes="ccsccc" />
    <path
       inkscape:connector-curvature="0"
       id="path826"
       d="m 49.115495,274.88769 1.096446,10.6976 3.76557,5.44806 -7.045422,2.16942 c 0,0 -5.758014,4.19463 0.418966,2.99531 6.176978,-1.19932 16.439258,-5.33774 16.439258,-5.33774 l -4.76337,-7.2451 -0.09864,-8.90057 z"
       style="fill:#000000;stroke:#fffff6;stroke-width:0.52916667;stroke-linecap:butt;stroke-linejoin:miter;stroke-miterlimit:4;stroke-dasharray:none;stroke-opacity:0.97740114" />
    <path
       style="fill:#000000;stroke:#ffffff;stroke-width:0.52916667;stroke-linecap:butt;stroke-linejoin:miter;stroke-miterlimit:4;stroke-dasharray:none;stroke-opacity:1"
       d="m 33.176694,275.75624 -3.465165,10.29292 1.212807,6.29864 -7.450105,-0.30724 c 0,0 -7.103588,1.99712 -0.866291,2.91887 6.237297,0.92177 17.499086,0.46088 17.499086,0.46088 l -1.386068,-8.29578 3.638424,-8.29577 z"
       id="path824"
       inkscape:connector-curvature="0" />
    <path
       style="fill:#000000;stroke:#ffffff;stroke-width:0.52916667;stroke-linecap:butt;stroke-linejoin:miter;stroke-miterlimit:4;stroke-dasharray:none;stroke-opacity:1"
       d="m 17.929966,269.61122 c 0,0 9.684026,11.22616 27.028291,11.52191 18.01886,0.30725 28.760873,-11.67554 28.760873,-11.67554"
       id="path822"
       inkscape:connector-curvature="0"
       sodipodi:nodetypes="csc" />
    <path
       style="fill:#ff0000;stroke:#ffffff;stroke-width:0.52916667;stroke-linecap:butt;stroke-linejoin:miter;stroke-opacity:1;stroke-miterlimit:4;stroke-dasharray:none"
       d="m 60.237795,241.33384 c 0,0 3.923793,-0.7306 10.447222,1.94586 7.99066,3.27847 7.567317,4.56914 7.567317,4.56914 l -2.596117,4.55626 c 0,0 0.07377,-0.53428 -6.444393,-3.25053 -6.518174,-2.71629 -5.458249,-0.33459 -5.458249,-0.33459 z"
       id="path830"
       inkscape:connector-curvature="0"
       sodipodi:nodetypes="csccscc" />
    <path
       sodipodi:nodetypes="csccscc"
       inkscape:connector-curvature="0"
       id="path832"
       d="m 25.607064,252.9894 c 0,0 -0.756334,3.13352 -7.142181,3.57336 -9.5078992,0.65489 -7.867392,-0.14085 -7.867392,-0.14085 l 1.208202,-6.68531 c 0,0 -0.04432,1.64288 7.630295,0.12304 7.67462,-1.51996 9.763932,-5.34889 9.763932,-5.34889 z"
       style="fill:#ff0000;stroke:#ffffff;stroke-width:0.5291667;stroke-linecap:butt;stroke-linejoin:miter;stroke-miterlimit:4;stroke-dasharray:none;stroke-opacity:1" />
    <path
       style="fill:#000000;stroke:#000000;stroke-width:0.44718394px;stroke-linecap:butt;stroke-linejoin:miter;stroke-opacity:1"
       d="m 31.850646,241.125 14.97214,8.75952 13.210096,-8.76763 z"
       id="path916"
       inkscape:connector-curvature="0" />
    <path
       style="fill:#f4d7d7;stroke:#ffffff;stroke-width:0.42731377;stroke-linecap:butt;stroke-linejoin:miter;stroke-miterlimit:4;stroke-dasharray:none;stroke-opacity:1"
       d="m 52.923313,217.39064 c 0,0 1.550951,3.3894 1.380957,6.35765 -0.206748,3.61005 -1.617523,5.46764 -3.774617,6.79308 -1.734996,1.06609 -5.758812,1.35701 -8.746069,-1.13218 -2.62521,-2.18749 -2.736867,-4.28468 -2.853981,-7.05436 -0.09206,-2.17728 1.179417,-7.41427 7.088919,-7.48982 6.812728,-0.0871 6.904791,2.52563 6.904791,2.52563 z"
       id="path839"
       inkscape:connector-curvature="0"
       sodipodi:nodetypes="csssssc"
       clip-path="url(#clipPath928)"
       transform="matrix(2.6801937,0,0,1.9135554,-79.486144,-197.42844)" />
    <path
       style="fill:#000000;stroke:#ffffff;stroke-width:0.52916667;stroke-linecap:butt;stroke-linejoin:miter;stroke-opacity:1;stroke-miterlimit:4;stroke-dasharray:none"
       d="m 77.996823,247.23069 v 0 l 1.169987,1.03477 -2.628786,4.67597 -1.127394,-0.80091 v 0"
       id="path864"
       inkscape:connector-curvature="0" />
    <path
       style="fill:#ffff00;stroke:#000000;stroke-width:0.15164177px;stroke-linecap:butt;stroke-linejoin:miter;stroke-opacity:1"
       d="m 54.48263,247.60544 c 0,0 -2.604277,0.77156 -3.275214,3.19129 -0.563883,2.03368 0.995786,4.27757 0.995786,4.27757 l 2.548412,-3.36791 c 0.832431,0.88563 1.443787,1.83929 3.115378,3.21553 0,0 1.752241,-1.2543 0.202321,-4.42636 -1.365943,-2.79548 -3.586678,-2.89012 -3.586678,-2.89012 z"
       id="path914"
       inkscape:connector-curvature="0"
       sodipodi:nodetypes="cscccsc" />
    <path
       style="fill:#000000;fill-opacity:1;stroke:none;stroke-width:0.42731377;stroke-linecap:butt;stroke-linejoin:miter;stroke-miterlimit:4;stroke-dasharray:none;stroke-opacity:1"
       d="m 52.822173,213.37275 c 0,0 0.09449,-2.64583 -2.645833,1.7009 -2.773032,4.3986 -1.417413,9.16592 0.09449,10.86681 1.511906,1.7009 5.643806,2.15819 5.682998,2.15329 0.03919,-0.005 3.388429,-7.63394 3.388429,-7.63394 z"
       id="path920"
       inkscape:connector-curvature="0"
       sodipodi:nodetypes="cscccc"
       clip-path="url(#clipPath924)"
       transform="matrix(2.6801937,0,0,1.9135554,-80.397156,-197.10651)" />
    <ellipse
       style="fill:#ffffff;fill-opacity:1;stroke:#000000;stroke-width:0.75029683;stroke-miterlimit:4;stroke-dasharray:none;stroke-opacity:1"
       id="path938"
       cx="34.502495"
       cy="227.13438"
       rx="2.5043657"
       ry="1.9569601" />
    <ellipse
       ry="1.9569601"
       rx="2.5043657"
       cy="227.46057"
       cx="42.054119"
       id="ellipse940"
       style="fill:#ffffff;fill-opacity:1;stroke:#000000;stroke-width:0.75029683;stroke-miterlimit:4;stroke-dasharray:none;stroke-opacity:1" />
    <path
       style="fill:none;stroke:#000000;stroke-width:1.94697297;stroke-linecap:butt;stroke-linejoin:miter;stroke-miterlimit:4;stroke-dasharray:none;stroke-opacity:1"
       d="m 30.684228,219.83935 7.853139,3.6636"
       id="path954"
       inkscape:connector-curvature="0" />
    <path
       inkscape:connector-curvature="0"
       id="path956"
       d="m 41.490386,223.53053 7.816862,-3.71875"
       style="fill:none;stroke:#000000;stroke-width:1.94697297;stroke-linecap:butt;stroke-linejoin:miter;stroke-miterlimit:4;stroke-dasharray:none;stroke-opacity:1" />
    <ellipse
       style="fill:#ffd5d5;fill-opacity:1;stroke:#000000;stroke-width:0.81263787;stroke-miterlimit:4;stroke-dasharray:none;stroke-opacity:1"
       id="path958"
       cx="38.711369"
       cy="238.55383"
       rx="7.5264039"
       ry="1.3955337" />
    <path
       style="fill:none;stroke:#000000;stroke-width:0.59919202px;stroke-linecap:butt;stroke-linejoin:miter;stroke-opacity:1"
       d="m 38.078228,229.31382 c -5.571764,3.79721 -11.903325,5.24377 -8.610914,5.96702 3.292407,0.72331 7.597864,-0.54245 7.597864,-0.54245 l 0.759793,0.36165 -0.506525,-0.36165"
       id="path960"
       inkscape:connector-curvature="0" />
    <ellipse
       style="fill:#000000;fill-opacity:1;stroke:#000000;stroke-width:0.90586519;stroke-miterlimit:4;stroke-dasharray:none;stroke-opacity:1"
       id="path962"
       cx="34.481888"
       cy="226.99039"
       rx="0.8864181"
       ry="0.85889298" />
    <ellipse
       style="fill:#000000;fill-opacity:1;stroke:#000000;stroke-width:0.90586519;stroke-miterlimit:4;stroke-dasharray:none;stroke-opacity:1"
       id="path964"
       cx="41.889816"
       cy="227.35204"
       rx="0.94973379"
       ry="0.94930279" />
  </g>
</svg>
